<svg width="60" height="60" viewBox="0 0 60 60" fill="none" xmlns="http://www.w3.org/2000/svg">
<g clip-path="url(#clip0)">
<path d="M60 30C60 40.9996 54.0809 50.6167 45.2522 55.838C40.7841 58.4829 35.569 60 30 60C25.8514 60 21.8988 59.1575 18.3061 57.6343C17.0755 57.1139 15.8865 56.5127 14.7477 55.838C5.91914 50.6167 0 40.9996 0 30C0 13.4314 13.4314 0 30 0C46.5686 0 60 13.4314 60 30Z" fill="#343A6E"/>
<path d="M55.0867 25.0867C55.0867 34.2848 50.1369 42.3268 42.7542 46.693C39.0178 48.9047 34.6568 50.1734 29.9999 50.1734C26.5308 50.1734 23.2254 49.4689 20.2212 48.1951C19.1921 47.7599 18.1978 47.2571 17.2455 46.693C9.86296 42.327 4.91331 34.2848 4.91331 25.0867C4.91331 11.2316 16.1449 0 30 0C43.8551 0 55.0867 11.2316 55.0867 25.0867Z" fill="#484B7F"/>
<path d="M32.449 46.5636H26.3265V58.4411H32.449V46.5636Z" fill="#F9DF73"/>
<path d="M29.3872 46.5636H26.3265V58.4411H29.3872V46.5636Z" fill="#F2AE5A"/>
<path d="M29.9996 41.4208C22.6204 41.4208 16.4825 35.7453 15.9056 28.3889L14.0197 4.3379C13.9412 3.33723 14.7321 2.48212 15.7357 2.48212H44.2633C45.2671 2.48212 46.0578 3.33747 45.9793 4.3379L44.0934 28.3886C43.5167 35.7453 37.3788 41.4208 29.9996 41.4208Z" fill="#F9DF73"/>
<path d="M29.3877 50.1757C32.4646 50.1757 34.9589 47.6814 34.9589 44.6045C34.9589 41.5276 32.4646 39.0333 29.3877 39.0333C26.3108 39.0333 23.8165 41.5276 23.8165 44.6045C23.8165 47.6814 26.3108 50.1757 29.3877 50.1757Z" fill="#F9DF73"/>
<path d="M17.8509 31.2854C12.2228 31.2854 7.82694 29.4532 4.78534 25.8395C1.99546 22.5246 0.429597 17.8475 0.131355 11.9382C-0.0873166 7.60485 0.482683 4.25035 0.507058 4.10973L0.683074 3.0943H9.8994L12.2259 7.23699H16.0571V9.68598H10.7925L8.46597 5.54328H2.78378C2.4219 8.69973 1.77573 18.4674 6.66409 24.2683C9.21843 27.2994 12.9823 28.8364 17.851 28.8364L17.8509 31.2854Z" fill="#F2AE5A"/>
<path d="M27.4771 39.3698C27.7011 39.4997 27.9314 39.6123 28.164 39.7053C27.7905 40.0653 27.4649 40.5563 27.204 41.1429C26.6028 41.0229 26.015 40.8637 25.4444 40.6689C20.233 38.8959 16.3575 34.1595 15.9056 28.3885L14.0198 4.3379C13.9413 3.33723 14.7322 2.48212 15.7358 2.48212H20.9383L22.0795 27.4923C22.3355 33.0869 24.5297 37.675 27.4771 39.3698Z" fill="#F2AE5A"/>
<path d="M29.5586 50.1734C29.5023 50.1746 29.4447 50.1759 29.3872 50.1759C26.3113 50.1759 23.8158 47.6816 23.8158 44.6045C23.8158 43.069 24.4391 41.6768 25.4443 40.669C26.0137 40.0984 26.7055 39.6514 27.4769 39.3698C27.701 39.4997 27.9313 39.6123 28.1639 39.7053C27.7904 40.0653 27.4647 40.5563 27.2039 41.1429C26.779 42.093 26.5255 43.2968 26.5255 44.6045C26.5256 47.624 27.875 50.0829 29.5586 50.1734Z" fill="#F2AE5A"/>
<path d="M29.5587 50.1735C29.7081 50.1686 29.855 50.1589 29.9995 50.1429C29.8869 50.165 29.7717 50.176 29.6555 50.176C29.6236 50.176 29.5905 50.1747 29.5587 50.1735Z" fill="#F2AE5A"/>
<path d="M45.2522 55.838C40.784 58.4829 35.569 60 30 60C24.431 60 19.2159 58.4829 14.7478 55.838C15.4408 54.2009 17.0608 53.0535 18.9502 53.0535H41.0498C42.9391 53.0535 44.5591 54.2009 45.2522 55.838Z" fill="#F2AE5A"/>
<path d="M45.2522 55.838C40.7841 58.4829 35.569 60 30 60C25.8514 60 21.8988 59.1576 18.3061 57.6343V57.6159C18.3061 55.0959 20.3486 53.0535 22.8686 53.0535H41.0497C42.9391 53.0535 44.5591 54.2009 45.2522 55.838Z" fill="#F9DF73"/>
<path d="M42.1481 31.2855V28.8365C47.0169 28.8365 50.7807 27.2994 53.3351 24.2684C58.2233 18.4674 57.5773 8.70026 57.2154 5.54335H51.5333L49.2068 9.68605H43.9423V7.23718H47.7735L50.1 3.09448H59.3163L59.4923 4.10991C59.5901 4.6737 61.8081 18.0049 55.2139 25.8398C52.1723 29.4531 47.7764 31.2855 42.1481 31.2855Z" fill="#F9DF73"/>
<path d="M29.9996 11.8629L32.9646 17.8706L39.5944 18.8339L34.797 23.5102L35.9295 30.1133L29.9996 26.9957L24.0697 30.1133L25.2022 23.5102L20.4049 18.8339L27.0347 17.8706L29.9996 11.8629Z" fill="#F2AE5A"/>
</g>
<defs>
<clipPath id="clip0">
<rect width="60" height="60" fill="white"/>
</clipPath>
</defs>
</svg>
