<svg width="60" height="60" viewBox="0 0 60 60" fill="none" xmlns="http://www.w3.org/2000/svg">
<g clip-path="url(#clip0)">
<path d="M30 60C46.5685 60 60 46.5685 60 30C60 13.4315 46.5685 0 30 0C13.4315 0 0 13.4315 0 30C0 46.5685 13.4315 60 30 60Z" fill="#343A6E"/>
<path d="M46.6212 15.9036L29.9996 24.7195L13.378 15.9036V0.00012207H46.6212V15.9036Z" fill="#FF525D"/>
<path d="M49.0335 43.7535C49.0335 48.627 47.2016 53.0719 44.1906 56.438C39.9661 58.7106 35.1343 60 30 60C24.8645 60 20.0326 58.7106 15.807 56.4367C12.7959 53.0706 10.9653 48.6257 10.9653 43.7534C10.9653 33.2412 19.4878 24.7199 30 24.7199C40.5122 24.7199 49.0335 33.2412 49.0335 43.7535Z" fill="#FFD15C"/>
<path d="M30 58.3726C38.0739 58.3726 44.6191 51.8273 44.6191 43.7534C44.6191 35.6795 38.0739 29.1343 30 29.1343C21.9261 29.1343 15.3809 35.6795 15.3809 43.7534C15.3809 51.8273 21.9261 58.3726 30 58.3726Z" fill="#FFDC8D"/>
<path d="M29.9996 32.4375L33.3253 39.1761L40.7618 40.2567L35.3808 45.5019L36.6511 52.9084L29.9996 49.4116L23.3482 52.9084L24.6185 45.5019L19.2374 40.2567L26.6739 39.1761L29.9996 32.4375Z" fill="#F4A14E"/>
</g>
<defs>
<clipPath id="clip0">
<rect width="60" height="60" fill="white"/>
</clipPath>
</defs>
</svg>
