<svg width="60" height="60" viewBox="0 0 60 60" fill="none" xmlns="http://www.w3.org/2000/svg">
<g clip-path="url(#clip0)">
<path d="M60 30C60 34.2564 59.1135 38.3057 57.5155 41.973C56.8029 43.609 55.9481 45.1702 54.9674 46.6384C54.611 47.1723 54.2375 47.6951 53.8458 48.2045C53.4049 48.7812 52.9422 49.342 52.4622 49.8857C51.3736 51.1151 50.1858 52.2538 48.9098 53.2897C48.458 53.6571 47.9964 54.0122 47.5238 54.3513C46.2136 55.2967 44.8237 56.1379 43.3654 56.8639C42.807 57.1431 42.2388 57.4051 41.6609 57.6489C38.0767 59.1636 34.1364 60 30 60C25.8502 60 21.8964 59.1575 18.3025 57.6343C16.2171 56.7503 14.253 55.6372 12.4409 54.3258C11.9682 53.9854 11.5054 53.6303 11.0535 53.2604C9.78246 52.2245 8.5984 51.0858 7.51465 49.8575C6.61582 48.8425 5.78684 47.7674 5.03262 46.6384C4.69594 46.1352 4.37379 45.6196 4.0677 45.0943C3.4677 44.0645 2.92523 42.9955 2.44887 41.8923C0.873047 38.2457 0 34.2245 0 30C0 13.4314 13.4314 0 30 0C46.5686 0 60 13.4314 60 30Z" fill="#343A6E"/>
<path d="M54.6362 24.6362C54.6362 28.1316 53.9081 31.457 52.596 34.4686C52.0107 35.8121 51.3088 37.0942 50.5035 38.2998C50.2108 38.7382 49.9042 39.1676 49.5824 39.5859C49.2204 40.0596 48.8402 40.5202 48.446 40.9665C47.5521 41.9761 46.5767 42.9113 45.5289 43.762C45.1578 44.0638 44.7787 44.3554 44.3906 44.6339C43.3146 45.4103 42.1733 46.101 40.9758 46.6973C40.5172 46.9266 40.0507 47.1418 39.5761 47.3419C36.6328 48.5857 33.3969 49.2725 30.0001 49.2725C26.5922 49.2725 23.3453 48.5807 20.394 47.3298C18.6816 46.6038 17.0687 45.6898 15.5804 44.6128C15.1923 44.3333 14.8122 44.0416 14.4411 43.7379C13.3973 42.8872 12.425 41.952 11.535 40.9434C10.7968 40.1098 10.1162 39.227 9.49676 38.2998C9.22032 37.8865 8.95582 37.4632 8.70434 37.0318C8.21157 36.1862 7.76614 35.3082 7.37508 34.4023C6.08086 31.4077 5.36403 28.1054 5.36403 24.6362C5.36379 11.0299 16.3937 0 30 0C43.6063 0 54.6362 11.0299 54.6362 24.6362Z" fill="#484B7F"/>
<path d="M14.5213 28.5049H8.97433V32.7H14.5213V28.5049Z" fill="#823728"/>
<path d="M18.303 24.2852C18.303 27.4201 16.1025 30.041 13.1617 30.6875C12.7062 30.7878 12.2326 30.841 11.7472 30.841C8.12695 30.841 5.19141 27.9056 5.19141 24.2852C5.19141 20.6648 8.12695 17.7305 11.7472 17.7305C12.2326 17.7305 12.7062 17.7839 13.1617 17.884C16.1025 18.5304 18.303 21.1501 18.303 24.2852Z" fill="#823728"/>
<path d="M18.303 24.2853C18.303 27.4202 16.1025 30.0411 13.1617 30.6876C10.2209 30.0412 8.02031 27.4204 8.02031 24.2853C8.02031 21.1504 10.2209 18.5306 13.1617 17.8842C16.1025 18.5304 18.303 21.1502 18.303 24.2853Z" fill="#965845"/>
<path d="M21.0453 40.1389V48.6662C21.0453 50.1822 19.8184 51.4103 18.3037 51.4103H18.3026V57.6344C12.8769 55.3348 8.2691 51.4838 5.03273 46.6384C4.03605 45.1458 3.1691 43.5576 2.4491 41.8923V40.1389C2.4491 36.1422 4.97027 32.7368 8.50793 31.4217C9.51691 31.0458 10.6079 30.8413 11.7479 30.8413C16.882 30.8412 21.0453 35.0032 21.0453 40.1389Z" fill="#FF525D"/>
<path d="M4.0678 45.0944C3.4678 44.0645 2.92534 42.9955 2.44897 41.8923V40.1389C2.44897 36.1422 4.97015 32.7368 8.5078 31.4218L9.17144 32.6303C6.56331 33.4322 3.95636 37.2527 4.0678 45.0944Z" fill="#DB343F"/>
<path d="M21.0453 46.6384V48.6662C21.0453 50.1822 19.8184 51.4103 18.3037 51.4103H18.3026V57.6344C12.8769 55.3348 8.2691 51.4838 5.03273 46.6384H21.0453Z" fill="#484B7F"/>
<path d="M16.9935 46.6384H6.75305V48.274H16.9935V46.6384Z" fill="#DB343F"/>
<path d="M7.75348 46.6384V48.7568C7.75348 49.1499 7.66782 49.5222 7.51465 49.8577C6.61583 48.8426 5.78684 47.7675 5.03262 46.6385L7.75348 46.6384Z" fill="#965845"/>
<path d="M15.7409 46.6384H21.0456V48.7573C21.0456 50.2221 19.8581 51.4097 18.3932 51.4097C16.9283 51.4097 15.7407 50.2223 15.7407 48.7573L15.7409 46.6384Z" fill="#823728"/>
<path d="M21.0456 46.6384V48.7568C21.0456 49.9367 20.2765 50.936 19.2119 51.2806C18.8087 51.1504 18.4472 50.9264 18.1537 50.6331C17.6737 50.1531 17.3762 49.4897 17.3762 48.7568V46.6384H21.0456Z" fill="#965845"/>
<path d="M11.7472 34.3717L14.6077 31.9894L11.7472 30.8408L8.88692 31.9894L11.7472 34.3717Z" fill="#F0F0F0"/>
<path d="M11.7472 30.8408L8.74454 34.6205L6.68239 31.0649L11.7472 30.8408Z" fill="#FF525D"/>
<path d="M11.7472 30.8408L14.7499 34.6205L16.8122 31.0649L11.7472 30.8408Z" fill="#FF525D"/>
<path d="M11.7472 44.1138L14.0388 42.1583L11.7472 33.3049L9.45575 42.1583L11.7472 44.1138Z" fill="#F0F0F0"/>
<path d="M7.25367 37.1094C7.52988 37.1094 7.75382 37.3334 7.75382 37.6096V46.6384H6.75351V37.6096C6.75339 37.3334 6.97734 37.1094 7.25367 37.1094Z" fill="#DB343F"/>
<path d="M16.2409 37.1094C16.5171 37.1094 16.741 37.3334 16.741 37.6096V46.6384H15.7407V37.6096C15.7408 37.3334 15.9647 37.1094 16.2409 37.1094Z" fill="#DB343F"/>
<path d="M12.4409 51.3318V54.3257C11.9682 53.9853 11.5054 53.6302 11.0535 53.2604V51.3318C11.0535 50.9485 11.3645 50.6388 11.7478 50.6388C12.1298 50.6388 12.4409 50.9485 12.4409 51.3318Z" fill="#343A6E"/>
<path d="M20.857 14.942C20.857 18.2689 18.1594 20.9666 14.8324 20.9666H6.08672C6.08672 17.6396 8.78437 14.942 12.1124 14.942H20.857Z" fill="#5897D1"/>
<path d="M20.857 14.942C20.857 18.2689 18.1594 20.9666 14.8324 20.9666H7.4189C7.4189 17.6396 10.1166 14.942 13.4446 14.942H20.857Z" fill="#9FC5E6"/>
<path d="M50.9903 28.5048H45.4433V32.6999H50.9903V28.5048Z" fill="#E5A379"/>
<path d="M54.7726 24.2852C54.7726 27.4201 52.5721 30.041 49.6313 30.6875C49.1757 30.7878 48.7022 30.841 48.2168 30.841C44.5965 30.841 41.661 27.9056 41.661 24.2852C41.661 20.6648 44.5964 17.7305 48.2168 17.7305C48.7022 17.7305 49.1757 17.784 49.6313 17.884C52.5721 18.5303 54.7726 21.1501 54.7726 24.2852Z" fill="#E5A379"/>
<path d="M54.7726 24.2853C54.7726 27.4202 52.5721 30.0411 49.6312 30.6876C46.6904 30.0412 44.4899 27.4204 44.4899 24.2853C44.4899 21.1504 46.6904 18.5306 49.6312 17.8842C52.5721 18.5304 54.7726 21.1502 54.7726 24.2853Z" fill="#F9D5A9"/>
<path d="M57.5155 40.1388V41.9732C56.8029 43.6091 55.9481 45.1703 54.9674 46.6385C51.7237 51.4949 47.1025 55.352 41.6609 57.6491V51.4102C40.98 51.4102 40.3555 51.1603 39.8755 50.7477C39.8033 50.6865 39.7335 50.6191 39.6674 50.5493C39.2033 50.0583 38.9193 49.3971 38.9193 48.666V40.1386C38.9193 36.1419 41.4392 32.7366 44.9781 31.4215C45.9871 31.0456 47.0781 30.8411 48.2169 30.8411C53.3522 30.8412 57.5155 35.0032 57.5155 40.1388Z" fill="#9FC5E6"/>
<path d="M40.5923 46.6384C40.7044 48.6395 40.4058 49.9386 39.8755 50.7483C39.803 50.6864 39.7336 50.6193 39.6675 50.5499C39.2036 50.0582 38.9187 49.3968 38.9187 48.6661V40.1391C38.9187 36.1422 41.4393 32.7363 44.9775 31.421L45.6409 32.6296C42.8675 33.4831 40.0941 37.7498 40.5923 46.6384Z" fill="#5897D1"/>
<path d="M54.9674 46.6384C51.7238 51.4948 47.1025 55.3519 41.6609 57.649V51.4102C40.8759 51.4102 40.167 51.0783 39.6674 50.5493V46.6383L54.9674 46.6384Z" fill="#484B7F"/>
<path d="M43.3654 48.5584V56.8641C42.807 57.1432 42.2388 57.4052 41.6609 57.649V51.4102C40.8759 51.4102 40.167 51.0783 39.6674 50.5493V48.5583H43.3654V48.5584Z" fill="#343A6E"/>
<path d="M53.4638 46.6384H43.2233V48.274H53.4638V46.6384Z" fill="#5897D1"/>
<path d="M44.2233 46.6384V48.7568C44.2233 49.9367 43.4542 50.936 42.3896 51.2806C42.1326 51.3648 41.8574 51.4096 41.5714 51.4096C40.8385 51.4096 40.1751 51.113 39.6951 50.633C39.2151 50.153 38.9185 49.4896 38.9185 48.7567V46.6383L44.2233 46.6384Z" fill="#E5A379"/>
<path d="M44.2233 46.6384V48.7568C44.2233 49.9367 43.4542 50.936 42.3896 51.2806C41.9864 51.1504 41.6249 50.9264 41.3314 50.6331C40.8514 50.1531 40.5539 49.4897 40.5539 48.7568V46.6384H44.2233Z" fill="#F9D5A9"/>
<path d="M54.9674 46.6384C54.611 47.1723 54.2375 47.6951 53.8458 48.2045C53.4049 48.7812 52.9421 49.3421 52.4621 49.8857C52.2993 49.5428 52.21 49.1608 52.21 48.7567V46.6383L54.9674 46.6384Z" fill="#E5A379"/>
<path d="M54.9674 46.6384C54.611 47.1723 54.2376 47.6951 53.8458 48.2045V46.6384H54.9674Z" fill="#F9D5A9"/>
<path d="M48.2169 34.3717L51.0772 31.9894L48.2169 30.8408L45.3565 31.9894L48.2169 34.3717Z" fill="#484B7F"/>
<path d="M48.2169 30.8408L45.2142 34.6205L43.1519 31.0649L48.2169 30.8408Z" fill="#5897D1"/>
<path d="M48.2169 30.8408L51.2195 34.6205L53.2819 31.0649L48.2169 30.8408Z" fill="#5897D1"/>
<path d="M48.2169 44.1138L50.5084 42.1583L48.2169 33.3049L45.9253 42.1583L48.2169 44.1138Z" fill="#484B7F"/>
<path d="M43.7232 37.1094C43.9995 37.1094 44.2234 37.3334 44.2234 37.6096V46.6384H43.2231V37.6096C43.223 37.3334 43.447 37.1094 43.7232 37.1094Z" fill="#5897D1"/>
<path d="M52.7104 37.1094C52.9867 37.1094 53.2106 37.3334 53.2106 37.6096V46.6384H52.2103V37.6096C52.2104 37.3334 52.4342 37.1094 52.7104 37.1094Z" fill="#5897D1"/>
<path d="M48.9098 51.3318V53.2898C48.458 53.6572 47.9964 54.0123 47.5237 54.3514V51.3318C47.5237 50.9485 47.8336 50.6388 48.2168 50.6388C48.6 50.6388 48.9098 50.9485 48.9098 51.3318Z" fill="#343A6E"/>
<path d="M57.3266 14.942C57.3266 18.2689 54.6289 20.9666 51.302 20.9666H42.5563C42.5563 17.6396 45.2539 14.942 48.5819 14.942H57.3266Z" fill="#DB343F"/>
<path d="M57.3266 14.942C57.3266 18.2689 54.6289 20.9666 51.302 20.9666H43.8886C43.8886 17.6396 46.5862 14.942 49.9142 14.942H57.3266Z" fill="#FF525D"/>
<path d="M33.3148 35.2396H26.6829V40.2561H33.3148V35.2396Z" fill="#E5A654"/>
<path d="M37.838 30.1939C37.838 33.9423 35.2068 37.076 31.6905 37.849C31.1459 37.9689 30.5797 38.0326 29.9994 38.0326C25.6707 38.0326 22.1607 34.5227 22.1607 30.1939C22.1607 25.8652 25.6706 22.3566 29.9994 22.3566C30.5797 22.3566 31.146 22.4203 31.6905 22.5402C35.2068 23.3132 37.838 26.4456 37.838 30.1939Z" fill="#E5A654"/>
<path d="M37.838 30.1939C37.838 33.9423 35.2068 37.076 31.6905 37.8489C28.1743 37.0761 25.5431 33.9424 25.5431 30.1939C25.5431 26.4454 28.1743 23.3131 31.6905 22.5402C35.2068 23.3131 37.838 26.4455 37.838 30.1939Z" fill="#F9C682"/>
<path d="M41.1171 49.1498V57.8732C39.9232 58.3495 38.6926 58.7511 37.429 59.0732C35.0535 59.678 32.5641 60 30 60C27.6698 60 25.402 59.7343 23.2249 59.231C21.7323 58.887 20.2813 58.4314 18.8816 57.8719V49.1498C18.8816 44.3719 21.8951 40.2992 26.1257 38.7269C27.333 38.2775 28.6371 38.0326 30 38.0326C36.1396 38.0326 41.1171 43.009 41.1171 49.1498Z" fill="#F0F0F0"/>
<path d="M20.8821 56.9218C20.9164 57.5316 20.9188 58.0874 20.8919 58.5919C20.8736 58.587 20.8553 58.5809 20.8369 58.5748C20.1744 58.3629 19.523 58.1278 18.8814 57.8719V49.1499C18.8814 44.3719 21.8948 40.2993 26.1254 38.727L26.9189 40.1719C23.6028 41.192 20.287 46.2932 20.8821 56.9218Z" fill="#D4D4D4"/>
<path d="M37.429 57.9514V59.073C35.0535 59.678 32.5641 60 30 60C27.6698 60 25.402 59.7343 23.2249 59.231V57.9514H37.429Z" fill="#FF525D"/>
<path d="M36.2718 56.9216H24.0281V58.8773H36.2718V56.9216Z" fill="#D4D4D4"/>
<path d="M25.2241 56.9218V59.454C25.2241 59.5104 25.223 59.5666 25.2192 59.6218C23.7181 59.3818 22.2547 59.0292 20.8368 58.5749C20.1743 58.363 19.5229 58.1279 18.8813 57.872V56.9218H25.2241Z" fill="#E5A654"/>
<path d="M25.2241 56.9218V59.454C25.2241 59.5104 25.223 59.5666 25.2192 59.6218C23.718 59.3818 22.2547 59.0292 20.8368 58.5749V56.9218H25.2241Z" fill="#F9C682"/>
<path d="M41.1168 56.9218V57.8733C39.7037 58.4366 38.2379 58.8969 36.7294 59.2422C36.0865 59.3892 35.435 59.5153 34.7775 59.6206C34.775 59.5656 34.7739 59.5105 34.7739 59.4553V56.9218H41.1168Z" fill="#E5A654"/>
<path d="M41.1168 56.9218V57.8733C39.7037 58.4366 38.2379 58.8969 36.7294 59.2422V56.9218H41.1168Z" fill="#F9C682"/>
<path d="M29.9993 42.2543L33.4194 39.4059L29.9993 38.0326L26.5791 39.4059L29.9993 42.2543Z" fill="#FF525D"/>
<path d="M29.9993 38.0326L26.4089 42.5518L23.9432 38.3006L29.9993 38.0326Z" fill="#D4D4D4"/>
<path d="M29.9993 38.0326L33.5895 42.5518L36.0553 38.3006L29.9993 38.0326Z" fill="#D4D4D4"/>
<path d="M29.9993 53.903L32.7391 51.5647L29.9993 40.9788L27.2592 51.5647L29.9993 53.903Z" fill="#FF525D"/>
<path d="M24.6262 45.528C24.9565 45.528 25.2243 45.7957 25.2243 46.126V56.9215H24.0281V46.126C24.0281 45.7956 24.296 45.528 24.6262 45.528Z" fill="#D4D4D4"/>
<path d="M35.3722 45.528C35.7025 45.528 35.9703 45.7957 35.9703 46.126V56.9215H34.7742V46.126C34.7742 45.7956 35.042 45.528 35.3722 45.528Z" fill="#D4D4D4"/>
<path d="M40.8916 19.0225C40.8916 23.0005 37.6661 26.226 33.6881 26.226H23.231C23.231 22.2479 26.4566 19.0225 30.4358 19.0225H40.8916Z" fill="#D4D4D4"/>
<path d="M40.8916 19.0225C40.8916 23.0005 37.6661 26.226 33.6881 26.226H24.8241C24.8241 22.2479 28.0497 19.0225 32.0289 19.0225H40.8916Z" fill="#F0F0F0"/>
<path d="M31.1926 0.741445L32.4135 3.21504C32.6072 3.60762 32.9816 3.87973 33.4148 3.94266L36.1446 4.33922C37.2355 4.49777 37.6711 5.8384 36.8817 6.60785L34.9065 8.53324C34.593 8.83875 34.4501 9.27902 34.524 9.71051L34.9903 12.4293C35.1766 13.5157 34.0363 14.3442 33.0605 13.8313L30.619 12.5476C30.2316 12.3438 29.7686 12.3438 29.3811 12.5476L26.9396 13.8313C25.9639 14.3442 24.8235 13.5157 25.0098 12.4293L25.4761 9.71051C25.55 9.27914 25.4071 8.83875 25.0936 8.53324L23.1184 6.60785C22.329 5.8384 22.7646 4.49777 23.8555 4.33922L26.5853 3.94266C27.0185 3.87973 27.3929 3.60762 27.5866 3.21504L28.8075 0.741445C29.2952 -0.247148 30.7048 -0.247148 31.1926 0.741445Z" fill="#FFD15C"/>
<path d="M15.0242 1.81043L15.989 3.76523C16.142 4.07543 16.438 4.29047 16.7803 4.34027L18.9375 4.65375C19.7997 4.77902 20.1438 5.8384 19.5201 6.44648L17.9591 7.96805C17.7114 8.20957 17.5984 8.55738 17.6568 8.8984L18.0252 11.0469C18.1725 11.9055 17.2713 12.5603 16.5001 12.1549L14.5706 11.1405C14.2644 10.9795 13.8987 10.9795 13.5924 11.1405L11.6627 12.1549C10.8916 12.5604 9.99048 11.9055 10.1377 11.0469L10.5061 8.8984C10.5646 8.55738 10.4515 8.20945 10.2038 7.96805L8.64317 6.44648C8.01926 5.8384 8.36368 4.77902 9.22571 4.65375L11.3829 4.34027C11.7253 4.29058 12.0212 4.07554 12.1743 3.76523L13.1391 1.81043C13.5246 1.02926 14.6387 1.02926 15.0242 1.81043Z" fill="#FFD15C"/>
<path d="M46.8608 1.81043L47.8256 3.76523C47.9787 4.07543 48.2747 4.29047 48.617 4.34027L50.7742 4.65375C51.6363 4.77902 51.9805 5.8384 51.3567 6.44648L49.7958 7.96805C49.5481 8.20957 49.4351 8.55738 49.4934 8.8984L49.8619 11.0469C50.0092 11.9055 49.108 12.5603 48.3368 12.1549L46.4073 11.1405C46.1011 10.9795 45.7354 10.9795 45.429 11.1405L43.4995 12.1549C42.7284 12.5604 41.8273 11.9055 41.9745 11.0469L42.3429 8.8984C42.4014 8.55738 42.2883 8.20945 42.0406 7.96805L40.4796 6.44648C39.8557 5.8384 40.2001 4.77902 41.0622 4.65375L43.2193 4.34027C43.5618 4.29058 43.8577 4.07554 44.0107 3.76523L44.9755 1.81043C45.3613 1.02926 46.4754 1.02926 46.8608 1.81043Z" fill="#FFD15C"/>
</g>
<defs>
<clipPath id="clip0">
<rect width="60" height="60" fill="white"/>
</clipPath>
</defs>
</svg>
