<svg width="60" height="60" viewBox="0 0 60 60" fill="none" xmlns="http://www.w3.org/2000/svg">
<path d="M30 60C46.5685 60 60 46.5685 60 30C60 13.4315 46.5685 0 30 0C13.4315 0 0 13.4315 0 30C0 46.5685 13.4315 60 30 60Z" fill="#343A6E"/>
<path d="M28.6565 12.7724C28.6565 12.7724 20.9617 9.36679 13.8152 16.7005C12.8794 17.6609 13.4418 19.2545 14.7664 19.463C16.7171 19.77 19.0738 21.071 20.6977 25.0474" fill="#EF4152"/>
<path d="M47.7932 31.9091C47.7932 31.9091 51.1988 39.6038 43.8651 46.7503C42.9047 47.6861 41.3111 47.1237 41.1026 45.7991C40.7956 43.8484 39.4945 41.4917 35.5181 39.8678" fill="#FF525D"/>
<path d="M38.5506 29.9816V29.9828L32.6007 38.0559C32.1746 38.635 31.3333 38.6987 30.8241 38.1893L22.3751 29.7404C21.8669 29.2322 21.9306 28.3909 22.5097 27.9649L30.5828 22.015L33.7701 25.2024L38.5506 29.9816Z" fill="#EF4152"/>
<path d="M38.5506 29.9829L32.6007 38.0559C32.1747 38.6351 31.3334 38.6988 30.8241 38.1894L25.5625 32.9278C25.0531 32.4197 25.1168 31.5772 25.6959 31.1511L33.7703 25.2026L38.5506 29.9829Z" fill="#FF525D"/>
<path d="M30.6734 29.8921C33.4711 32.6899 35.0829 36.222 35.5181 39.868C39.9925 38.1644 44.1885 35.5137 47.7932 31.9092C55.7412 23.9612 59.0673 13.1426 57.7747 2.79089C47.4229 1.49831 36.6046 4.82444 28.6565 12.7724C25.0518 16.3771 22.4011 20.5733 20.6977 25.0475C24.3435 25.4827 27.8756 27.0945 30.6734 29.8921Z" fill="#F9EED7"/>
<path d="M33.2932 17.408C30.3782 20.3231 27.8434 23.3794 25.7238 26.4525C24.1173 25.7197 22.4189 25.2526 20.6977 25.0475C22.402 20.5742 25.0515 16.3773 28.6569 12.7718C36.6042 4.82445 47.4231 1.49902 57.7748 2.79054C50.2439 4.31996 41.2404 9.46085 33.2932 17.408Z" fill="#E8DBC4"/>
<path d="M43.1364 24.9404C47.2846 24.9404 50.6474 21.5776 50.6474 17.4294C50.6474 13.2812 47.2846 9.9184 43.1364 9.9184C38.9882 9.9184 35.6254 13.2812 35.6254 17.4294C35.6254 21.5776 38.9882 24.9404 43.1364 24.9404Z" fill="#FF525D"/>
<path d="M43.1364 22.0838C45.7069 22.0838 47.7907 19.9999 47.7907 17.4294C47.7907 14.8589 45.7069 12.7751 43.1364 12.7751C40.5658 12.7751 38.482 14.8589 38.482 17.4294C38.482 19.9999 40.5658 22.0838 43.1364 22.0838Z" fill="#5C5E70"/>
<path d="M58.4302 32.8103H56.8195C56.0343 32.8103 55.398 32.1739 55.398 31.3889V29.7781C55.398 29.4263 55.1409 29.1123 54.7906 29.079C54.389 29.0406 54.0511 29.3554 54.0511 29.7493V31.389C54.0511 32.1741 53.4146 32.8105 52.6296 32.8105H51.0188C50.667 32.8105 50.353 33.0676 50.3197 33.4178C50.2814 33.8194 50.5961 34.1574 50.99 34.1574H52.6297C53.4149 34.1574 54.0512 34.7939 54.0512 35.5789V37.1896C54.0512 37.5414 54.3083 37.8555 54.6586 37.8888C55.0602 37.9271 55.3981 37.6123 55.3981 37.2185V35.5788C55.3981 34.7936 56.0346 34.1573 56.8196 34.1573H58.4593C58.8531 34.1573 59.1679 33.8193 59.1296 33.4177C59.0961 33.0677 58.7819 32.8103 58.4302 32.8103Z" fill="#FFD15C"/>
<path d="M22.6157 4.83219H21.0049C20.2198 4.83219 19.5834 4.19574 19.5834 3.4107V1.79996C19.5834 1.44816 19.3263 1.1341 18.9761 1.10082C18.5745 1.0625 18.2365 1.37727 18.2365 1.77113V3.41082C18.2365 4.19598 17.6 4.8323 16.815 4.8323H15.2043C14.8525 4.8323 14.5384 5.08941 14.5051 5.43969C14.4668 5.84129 14.7816 6.17926 15.1754 6.17926H16.8151C17.6003 6.17926 18.2366 6.8157 18.2366 7.60074V9.21148C18.2366 9.56328 18.4937 9.87734 18.844 9.91062C19.2456 9.94895 19.5836 9.63418 19.5836 9.24031V7.60074C19.5836 6.81559 20.22 6.17926 21.005 6.17926H22.6447C23.0385 6.17926 23.3534 5.84129 23.315 5.43969C23.2816 5.08941 22.9675 4.83219 22.6157 4.83219Z" fill="#FFD15C"/>
<path d="M15.4528 27.2393H13.8421C13.0569 27.2393 12.4206 26.6028 12.4206 25.8178V24.2071C12.4206 23.8553 12.1635 23.5412 11.8132 23.5079C11.4116 23.4696 11.0736 23.7844 11.0736 24.1782V25.8179C11.0736 26.6031 10.4372 27.2394 9.65216 27.2394H8.0413C7.6895 27.2394 7.37543 27.4965 7.34215 27.8468C7.30383 28.2484 7.6186 28.5864 8.01247 28.5864H9.65216C10.4373 28.5864 11.0736 29.2228 11.0736 30.0078V31.6186C11.0736 31.9704 11.3308 32.2845 11.681 32.3177C12.0826 32.3561 12.4206 32.0413 12.4206 31.6474V30.0077C12.4206 29.2226 13.057 28.5862 13.8421 28.5862H15.4818C15.8755 28.5862 16.1904 28.2483 16.1521 27.8467C16.1187 27.4964 15.8046 27.2393 15.4528 27.2393Z" fill="#FFD15C"/>
<path d="M28.8588 59.978C17.5359 59.5544 7.81839 52.8576 3.08332 43.26C1.30781 39.6637 0.232614 35.6609 0.0343323 31.429C0.707809 31.7266 1.33968 32.1526 1.89187 32.705C2.39027 33.2034 2.78449 33.7678 3.07593 34.3678C6.18855 33.5535 9.63925 34.3642 12.0784 36.8034C13.178 37.9042 13.9458 39.2107 14.3841 40.598L20.5481 34.4326C21.229 33.7518 22.331 33.7518 23.0118 34.4326L26.1318 37.5538C26.8126 38.2347 26.8126 39.3367 26.1318 40.0175L19.9677 46.1815C21.3551 46.6199 22.6616 47.3876 23.7623 48.4872C26.2015 50.9263 27.0122 54.377 26.1978 57.4896C26.7978 57.7811 27.3623 58.1753 27.8607 58.6737C28.2588 59.0719 28.5919 59.5115 28.8588 59.978Z" fill="#F9EED7"/>
<path d="M23.0119 34.4327L13.2685 44.176C13.2685 44.176 12.1886 41.6266 6.8632 41.6266C5.19058 41.6266 3.96972 42.3147 3.0832 43.26C1.30781 39.6637 0.232614 35.6609 0.0343323 31.429C0.707809 31.7266 1.33968 32.1526 1.89187 32.705C2.39027 33.2034 2.78449 33.7678 3.07593 34.3678C6.18855 33.5535 9.63925 34.3642 12.0784 36.8034C13.178 37.9042 13.9458 39.2107 14.3841 40.598L20.5481 34.4327C21.229 33.7519 22.331 33.7519 23.0119 34.4327Z" fill="#E8DBC4"/>
</svg>
