<svg width="60" height="60" viewBox="0 0 60 60" fill="none" xmlns="http://www.w3.org/2000/svg">
<path d="M60 30C60 46.5686 46.5686 60 30 60C23.8433 60 18.1212 58.1461 13.3591 54.9649C12.229 54.2106 11.1526 53.3804 10.1375 52.4829C7.68973 50.3193 5.5984 47.7625 3.96246 44.9107C2.04984 41.5788 0.757969 37.8442 0.247383 33.8658C0.0844922 32.5996 0 31.3102 0 30C0 13.4314 13.4314 0 30 0C46.5686 0 60 13.4314 60 30Z" fill="#343A6E"/>
<path d="M30 49.1351C43.568 49.1351 54.567 38.1361 54.567 24.5681C54.567 11.0002 43.568 0.00115967 30 0.00115967C16.432 0.00115967 5.43304 11.0002 5.43304 24.5681C5.43304 38.1361 16.432 49.1351 30 49.1351Z" fill="#484B7F"/>
<path d="M37.8367 36.1775C37.8367 44.0522 29.3668 50.4367 18.9183 50.4367C12.835 50.4367 7.42276 48.2731 3.96233 44.9106C2.04971 41.5787 0.757839 37.8441 0.247253 33.8657C1.71292 27.0906 9.51421 21.9183 18.9183 21.9183C29.3669 21.9184 37.8367 28.3029 37.8367 36.1775Z" fill="#FF525D"/>
<path d="M39.3894 31.0678C50.7717 31.0678 59.9989 24.113 59.9989 15.5339C59.9989 6.95477 50.7717 0 39.3894 0C28.0072 0 18.78 6.95477 18.78 15.5339C18.78 24.113 28.0072 31.0678 39.3894 31.0678Z" fill="#F9DF73"/>
<path d="M18.6674 47.5481C18.1433 50.5824 15.7483 53.1244 13.3593 54.9647C12.2291 54.2104 11.1528 53.3802 10.1377 52.4827C10.1119 49.4889 8.88986 46.8808 8.88986 46.8808L18.6674 47.5481Z" fill="#FF525D"/>
<path d="M19.8293 35.1065H7.14342C6.44779 35.1065 5.884 34.5426 5.884 33.8471C5.884 33.1514 6.44791 32.5876 7.14342 32.5876H19.8293C20.5248 32.5876 21.0887 33.1516 21.0887 33.8471C21.0886 34.5427 20.5248 35.1065 19.8293 35.1065Z" fill="#484B7F"/>
<path d="M30.3252 40.2138H7.14342C6.44779 40.2138 5.884 39.6499 5.884 38.9544C5.884 38.2587 6.44791 37.6949 7.14342 37.6949H30.3252C31.0208 37.6949 31.5846 38.2589 31.5846 38.9544C31.5847 39.6499 31.0208 40.2138 30.3252 40.2138Z" fill="#484B7F"/>
<path d="M50.3156 27.1948C50.3156 27.1948 48.0949 31.9322 49.3263 36.1975C49.6248 37.2315 48.5019 38.0866 47.5949 37.507C44.4736 35.5123 40.3937 32.1573 39.6633 27.921" fill="#F9DF73"/>
<path d="M26.9629 14.3673H40.7831C41.541 14.3673 42.1552 13.753 42.1552 12.9953C42.1552 12.2374 41.5409 11.6232 40.7831 11.6232H26.9629C26.205 11.6232 25.5908 12.2375 25.5908 12.9953C25.5907 13.753 26.2051 14.3673 26.9629 14.3673Z" fill="#484B7F"/>
<path d="M26.9629 19.9314H52.2178C52.9757 19.9314 53.5898 19.3171 53.5898 18.5593C53.5898 17.8015 52.9755 17.1873 52.2178 17.1873H26.9629C26.205 17.1873 25.5908 17.8016 25.5908 18.5593C25.5907 19.3171 26.2051 19.9314 26.9629 19.9314Z" fill="#484B7F"/>
</svg>
