<svg width="60" height="60" viewBox="0 0 60 60" fill="none" xmlns="http://www.w3.org/2000/svg">
<g clip-path="url(#clip0)">
<path d="M60 30C60 43.8983 50.5483 55.5873 37.7226 58.9946C40.7011 52.8424 41.3949 45.5745 39.1037 38.5639C34.4064 24.1897 18.9459 16.3452 4.57175 21.0427C3.30917 21.4553 2.09734 21.9512 0.939758 22.522C4.26249 9.57176 16.0134 0 30 0C46.5686 0 60 13.4314 60 30Z" fill="#343A6E"/>
<path d="M56.25 30.8458H41.35L38.3831 33.8127C38.1543 34.0415 37.7834 34.0415 37.5545 33.8127L34.5877 30.8458H19.6875C19.0403 30.8458 18.5156 30.3212 18.5156 29.674V8.5802C18.5156 7.93297 19.0403 7.40833 19.6875 7.40833H49.7373C52.9992 10.2604 55.6373 13.8072 57.4219 17.8184V29.674C57.4219 30.3212 56.8972 30.8458 56.25 30.8458Z" fill="#506EA0"/>
<path d="M47.4452 29.4271C51.0893 40.5781 46.8939 52.4066 37.8886 58.9497C35.3747 59.6331 32.7304 60 30 60C13.4314 60 0 46.5686 0 30C0 27.2746 0.365625 24.6349 1.0466 22.1251C4.1973 17.7784 8.69871 14.3498 14.192 12.5548C28.0337 8.03133 42.9218 15.5854 47.4452 29.4271Z" fill="#5D619D"/>
<path d="M47.4452 29.4271C42.9218 15.5852 28.0337 8.03121 14.192 12.5548C8.6988 14.3498 4.1974 17.7784 1.04658 22.1251C1.01353 22.247 0.981892 22.3693 0.950251 22.4918C0.935369 22.5493 0.920603 22.6068 0.906072 22.6645C0.844783 22.9083 0.786775 23.1533 0.731462 23.3994C0.718689 23.4561 0.705447 23.5126 0.693025 23.5693C0.663025 23.7063 0.634197 23.8438 0.606189 23.9815C0.586033 24.0803 0.566931 24.1793 0.54783 24.2784C0.511619 24.4657 0.476931 24.6536 0.444236 24.842C0.423845 24.96 0.403923 25.0782 0.384939 25.1967C0.372517 25.2737 0.359861 25.3507 0.348025 25.428C2.43279 21.6561 5.47908 18.4082 9.28158 16.0941C8.55654 17.7735 8.07396 19.8461 7.86197 22.2645C7.75029 23.5392 7.71595 24.8821 7.75521 26.2764C5.20369 26.814 2.64865 27.2392 0.0997046 27.5537C0.0682983 27.9431 0.0441577 28.3346 0.0276343 28.728C0.0275171 28.7319 0.0272827 28.7358 0.0271655 28.7396C0.0190796 28.9345 0.0127515 29.1298 0.00841553 29.3256C0.00841553 29.327 0.00829834 29.3284 0.00829834 29.3299C0.00384521 29.5281 0.00138428 29.7267 0.000915527 29.9258C2.62732 29.613 5.25994 29.1864 7.88892 28.6426C8.21963 32.5943 9.09595 36.8707 10.4742 41.1625C7.8533 41.655 5.23392 42.0286 2.62252 42.2834C2.68509 42.4226 2.7499 42.5605 2.81447 42.6986C2.84353 42.7607 2.87213 42.8231 2.90154 42.8851C2.97185 43.0325 3.04392 43.179 3.11658 43.3252C3.13873 43.3698 3.16076 43.4146 3.18314 43.459C3.26412 43.6198 3.34638 43.7796 3.43017 43.9386C3.44201 43.9612 3.45396 43.9837 3.46592 44.0064C3.55779 44.1797 3.65084 44.3523 3.74588 44.5237C6.23916 44.2552 8.73853 43.8813 11.2385 43.4023C12.6847 47.3925 14.4725 51.0716 16.4745 54.2025C15.3664 54.4312 14.2579 54.6366 13.1497 54.8232C13.1497 54.8232 13.1497 54.8232 13.1498 54.8232C13.629 55.1491 14.1186 55.461 14.6171 55.7593C14.6462 55.7767 14.6754 55.7937 14.7045 55.811C14.925 55.9418 15.1472 56.07 15.3712 56.1953C15.4013 56.2121 15.4315 56.2291 15.4616 56.2459C15.708 56.3827 15.9562 56.5166 16.2069 56.6466C16.7734 56.5343 17.3397 56.4185 17.9059 56.2956C18.3443 56.8948 18.7908 57.4677 19.2442 58.012C19.2456 58.0125 19.2469 58.0131 19.2483 58.0136C19.9644 58.2886 20.694 58.5366 21.4352 58.7572C21.4732 58.7685 21.511 58.78 21.549 58.7911C21.7069 58.8374 21.8652 58.8823 22.0241 58.926C22.0749 58.94 22.126 58.9536 22.177 58.9673C22.3342 59.0098 22.4915 59.0515 22.6496 59.0913C22.6822 59.0995 22.7149 59.1071 22.7475 59.1152C23.1099 59.2052 23.4746 59.2894 23.8421 59.3661C23.0685 58.716 22.2818 57.9383 21.4942 57.0388C21.1271 56.6195 20.7645 56.1785 20.4067 55.7196C22.8205 55.1282 25.2286 54.4407 27.6242 53.6578C30.0199 52.8749 32.3693 52.0076 34.6665 51.0594C34.6487 51.6412 34.6166 52.2111 34.5679 52.7662C34.2926 55.9082 33.5226 58.3632 32.3711 59.9062C32.3886 59.9048 32.4061 59.9038 32.4235 59.9023C32.5537 59.8918 32.6837 59.8802 32.8134 59.868C32.8684 59.8629 32.9236 59.8582 32.9784 59.8528C33.0976 59.8411 33.2162 59.828 33.3349 59.8148C33.3989 59.8077 33.4631 59.8014 33.5269 59.7939C33.581 59.7875 33.6349 59.7802 33.689 59.7735C33.948 59.7416 34.2062 59.7069 34.4632 59.6685C34.4836 59.6654 34.5041 59.6626 34.5245 59.6596C34.6721 59.6372 34.8193 59.6134 34.9661 59.5889C34.9843 59.5859 35.0026 59.583 35.0208 59.5799C35.1735 59.5541 35.3257 59.5271 35.4777 59.499C35.4868 59.4974 35.4959 59.4957 35.5051 59.494C36.3112 59.3441 37.1062 59.1622 37.8885 58.9495C46.8938 52.4066 51.0893 40.5782 47.4452 29.4271ZM35.1635 15.9199C32.6903 17.3309 30.1285 18.6357 27.4892 19.8272C26.6975 18.6789 25.877 17.6154 25.0339 16.6526C23.4347 14.8261 21.8213 13.4384 20.2445 12.5113C25.5311 12.0607 30.7346 13.3145 35.1635 15.9199ZM10.1968 22.4688C10.6197 17.6433 12.2086 14.4357 14.556 13.6686C16.9033 12.9015 20.0797 14.5518 23.2706 18.1963C23.9636 18.9878 24.6411 19.8537 25.2994 20.7828C22.8556 21.8122 20.3515 22.747 17.7957 23.5823C15.24 24.4175 12.667 25.1419 10.087 25.7542C10.0694 24.6157 10.1049 23.5169 10.1968 22.4688ZM10.1974 28.1341C12.9847 27.486 15.7644 26.7119 18.5237 25.8102C21.283 24.9084 23.9833 23.8916 26.6155 22.7687C28.6957 26.1183 30.527 30.1098 31.9449 34.4362C28.9084 35.7941 25.7655 37.0051 22.5279 38.0632C19.2902 39.1213 16.0387 39.9998 12.7863 40.6972C11.3758 36.3683 10.4968 32.0657 10.1974 28.1341ZM26.8963 51.43C24.2498 52.2948 21.5884 53.0384 18.9214 53.6634C16.8776 50.6162 15.0431 46.9478 13.5609 42.9272C16.7988 42.2227 20.0346 41.3437 23.2561 40.2911C26.4777 39.2382 29.608 38.0367 32.637 36.6932C33.8151 40.8132 34.501 44.8569 34.651 48.5231C32.1296 49.5935 29.5427 50.5651 26.8963 51.43ZM34.0857 33.4461C32.6636 29.1688 30.8455 25.2 28.7788 21.8156C31.7363 20.4673 34.5986 18.9794 37.3504 17.3616C40.6896 19.822 43.4478 23.1218 45.2658 27.0755C41.7456 29.442 38.0101 31.57 34.0857 33.4461ZM35.4832 59.1414C36.2082 57.462 36.6908 55.3894 36.9028 52.971C36.9852 52.0314 37.0249 51.0544 37.0249 50.0476C40.2615 48.6102 43.3874 47.0099 46.3823 45.2522C44.5624 50.9469 40.7463 55.9382 35.4832 59.1414ZM36.9438 47.513C36.7106 43.8041 35.9809 39.7792 34.7915 35.7049C38.7774 33.8169 42.5767 31.6762 46.1622 29.2952C46.2198 29.4598 46.2768 29.6246 46.3312 29.7911C47.6666 33.8773 47.8951 38.0637 47.1842 42.0252C43.932 44.0523 40.5099 45.8855 36.9438 47.513Z" fill="#767AC2"/>
<path d="M41.8483 55.4052C40.6368 54.5578 39.8438 53.1531 39.8438 51.5625C39.8438 51.0383 39.9311 50.5347 40.0899 50.0641C35.2379 48.8632 31.6407 44.481 31.6407 39.2578C31.6407 33.1093 36.625 28.125 42.7735 28.125C44.3983 28.125 45.9416 28.4733 47.3334 29.099C47.3706 29.2084 47.4092 29.317 47.4452 29.4272C50.503 38.784 48.0402 48.6173 41.8483 55.4052ZM15.2344 46.875C14.5468 46.875 13.8793 46.9608 13.2409 47.1201C17.1733 45.4025 19.9219 41.4796 19.9219 36.914C19.9219 30.7656 14.9376 25.7812 8.78911 25.7812C5.217 25.7812 2.03817 27.4639 0.00109863 30.0796C0.0373096 43.9947 9.54696 55.6822 22.4214 59.0335C23.0684 57.8604 23.4375 56.5126 23.4375 55.0781C23.4375 50.5476 19.7649 46.875 15.2344 46.875ZM39.8438 18.75C39.8438 18.4316 39.8238 18.118 39.7885 17.8091C36.2754 14.728 31.9904 12.6227 27.3971 11.7287C25.0238 13.1662 23.4375 15.7727 23.4375 18.75C23.4375 19.9212 23.6847 21.0341 24.127 22.042C22.9964 22.8978 22.2657 24.254 22.2657 25.7812C22.2657 28.37 24.3644 30.4687 26.9532 30.4687C29.1387 30.4687 30.9748 28.973 31.4938 26.9494C31.5429 26.9503 31.5914 26.9531 31.6407 26.9531C36.1711 26.9531 39.8438 23.2805 39.8438 18.75Z" fill="#484B7F"/>
<path d="M47.4452 29.4271C47.4093 29.317 47.3707 29.2083 47.3335 29.099C46.1833 28.5819 44.9292 28.2549 43.6115 28.1567C40.5811 30.0936 37.4018 31.8608 34.0858 33.4461C33.9969 33.179 33.9066 32.9131 33.8147 32.6484C32.8698 33.9271 32.1918 35.4149 31.8638 37.03C32.1219 36.9182 32.3803 36.8069 32.637 36.693C33.6277 40.1575 34.2687 43.5671 34.5373 46.7446C35.5853 47.8966 36.8702 48.8289 38.317 49.4616C41.0947 48.1788 43.7878 46.7747 46.3824 45.2521C45.2762 48.7133 43.4316 51.9135 40.9742 54.6114C41.2311 54.9108 41.5241 55.1785 41.8483 55.4053C48.0402 48.6174 50.503 38.7841 47.4452 29.4271ZM36.9438 47.513C36.7106 43.8042 35.9809 39.7792 34.7916 35.705C38.7775 33.817 42.5767 31.6763 46.1623 29.2953C46.2198 29.4598 46.2769 29.6247 46.3313 29.7911C47.6666 33.8773 47.8951 38.0637 47.1843 42.0253C43.9321 44.0524 40.51 45.8855 36.9438 47.513ZM28.7787 21.8157C29.7505 23.4071 30.6663 25.1288 31.5129 26.95C31.5066 26.9498 31.5001 26.9497 31.4938 26.9495C31.2526 27.89 30.7266 28.716 30.0136 29.3314C28.9906 26.9617 27.8472 24.7522 26.6155 22.7689C25.2498 23.3515 23.8654 23.9049 22.4643 24.4292C22.754 23.4667 23.3445 22.6345 24.1268 22.0422C24.0308 21.8234 23.9459 21.5989 23.8689 21.3708C24.3477 21.1782 24.825 20.9831 25.2993 20.7833C24.6967 19.9325 24.0777 19.1357 23.4456 18.3997C23.4872 17.4115 23.7027 16.4685 24.0638 15.6011C24.3874 15.9339 24.711 16.284 25.0338 16.6529C25.8768 17.6157 26.6974 18.6792 27.4892 19.8275C30.1285 18.636 32.6902 17.3312 35.1634 15.9202C32.3896 14.2885 29.3118 13.1871 26.1001 12.7022C26.4984 12.3372 26.9323 12.0105 27.3969 11.729C31.9902 12.623 36.2752 14.7283 39.7883 17.8094C39.8236 18.1183 39.8436 18.432 39.8436 18.7503C39.8436 18.9804 39.8317 19.2077 39.8132 19.4331C39.0348 18.6892 38.2124 17.9971 37.3504 17.362C34.5987 18.9795 31.7363 20.4673 28.7787 21.8157ZM23.4336 54.9256C22.4259 55.2067 21.4168 55.472 20.4067 55.7196C20.7646 56.1786 21.1272 56.6196 21.4942 57.0387C21.9134 57.5176 22.3323 57.9606 22.7492 58.3695C22.6499 58.5958 22.5408 58.8167 22.4223 59.0317C22.3487 59.0125 22.2751 58.9935 22.2019 58.9738C22.1329 58.9553 22.064 58.9368 21.9952 58.9177C21.8633 58.8812 21.7318 58.8439 21.6006 58.8056C21.5418 58.7885 21.4831 58.7712 21.4243 58.7538C21.2845 58.7122 21.1452 58.6695 21.0062 58.6259C20.9575 58.6106 20.9087 58.5951 20.8601 58.5795C20.7127 58.5324 20.5657 58.4842 20.4193 58.4349C20.3803 58.4218 20.3414 58.4084 20.3024 58.3952C20.1484 58.3426 19.995 58.289 19.8422 58.234C19.8107 58.2227 19.7793 58.2112 19.7479 58.1998C19.5898 58.1423 19.4323 58.0837 19.2755 58.0237C19.2648 58.0196 19.2543 58.0155 19.2436 58.0114C18.7904 57.4672 18.3442 56.8945 17.9059 56.2955C17.3399 56.4183 16.7738 56.5341 16.2074 56.6464C16.2026 56.6439 16.1978 56.6415 16.193 56.639C15.9452 56.5103 15.6997 56.378 15.456 56.2428C15.4227 56.2243 15.3897 56.2054 15.3565 56.1868C15.1426 56.067 14.9305 55.9445 14.7199 55.8197C14.6845 55.7988 14.6489 55.7783 14.6138 55.757C14.383 55.619 14.1543 55.4779 13.9275 55.3338C13.8881 55.3088 13.8492 55.2831 13.8101 55.2579C13.6191 55.1353 13.4296 55.0103 13.2415 54.8834C13.2115 54.8631 13.1814 54.843 13.1514 54.8226C14.259 54.6359 15.3669 54.4307 16.4745 54.2021C14.4724 51.0712 12.6846 47.3921 11.2384 43.4019C8.73845 43.8809 6.23919 44.2547 3.74579 44.5233C3.4445 43.9799 3.15927 43.4266 2.89114 42.8634C2.88938 42.8596 2.88751 42.856 2.88575 42.8522C2.81567 42.7049 2.74782 42.5563 2.68009 42.4076C2.6611 42.366 2.6413 42.3247 2.62255 42.2829C5.23384 42.0282 7.85321 41.6546 10.4741 41.162C9.09587 36.8703 8.21954 32.5939 7.88884 28.6422C5.30556 29.1766 2.71888 29.5972 0.137939 29.9084C1.09185 28.7319 2.28071 27.7539 3.63329 27.0456C5.00731 26.8211 6.38181 26.5654 7.75524 26.276C7.75103 26.1267 7.7481 25.9781 7.74564 25.8299C8.08923 25.7983 8.43716 25.7813 8.78907 25.7813C10.7192 25.7813 12.5343 26.2727 14.1168 27.1368C12.8129 27.4968 11.5061 27.8299 10.1975 28.1342C10.4968 32.0658 11.376 36.3684 12.7866 40.6973C15.1062 40.1999 17.4252 39.6086 19.7392 38.9275C19.5674 39.8679 19.2772 40.7668 18.885 41.6087C17.1122 42.0999 15.3369 42.5408 13.5609 42.9271C13.9773 44.0565 14.4223 45.1567 14.891 46.2246C14.3695 46.567 13.8184 46.868 13.241 47.1202C13.8631 46.9648 14.5129 46.8801 15.1819 46.8759C16.3095 49.358 17.5692 51.6473 18.9215 53.6635C20.3011 53.3402 21.6792 52.9844 23.0547 52.5972C23.2881 53.3337 23.4189 54.1155 23.4336 54.9256Z" fill="#7074B6"/>
<path d="M57.4219 5.06458V26.1583C57.4219 26.8056 56.8972 27.3302 56.25 27.3302H41.35L38.3831 30.2971C38.1543 30.5259 37.7834 30.5259 37.5545 30.2971L34.5877 27.3302H19.6875C19.0403 27.3302 18.5156 26.8056 18.5156 26.1583V5.06458C18.5156 4.41735 19.0403 3.8927 19.6875 3.8927H56.25C56.8972 3.8927 57.4219 4.41735 57.4219 5.06458Z" fill="#FF525D"/>
<path d="M54.0821 15.4943V16.6662C54.0821 16.9897 53.8197 17.2521 53.4961 17.2521H38.8477C38.5241 17.2521 38.2617 16.9897 38.2617 16.6662V15.4943C38.2617 15.1707 38.5241 14.9084 38.8477 14.9084H53.4961C53.8197 14.9084 54.0821 15.1707 54.0821 15.4943ZM53.4961 10.2209H38.8477C38.5241 10.2209 38.2617 10.4832 38.2617 10.8068V11.9787C38.2617 12.3022 38.5241 12.5646 38.8477 12.5646H53.4961C53.8197 12.5646 54.0821 12.3022 54.0821 11.9787V10.8068C54.0821 10.4832 53.8197 10.2209 53.4961 10.2209ZM48.4571 19.5959H38.8477C38.5241 19.5959 38.2617 19.8582 38.2617 20.1818V21.3537C38.2617 21.6772 38.5241 21.9396 38.8477 21.9396H48.4571C48.7806 21.9396 49.043 21.6772 49.043 21.3537V20.1818C49.043 19.8582 48.7806 19.5959 48.4571 19.5959ZM35.713 15.4358L33.4184 14.6198C33.0912 14.5035 32.9365 14.1298 33.0855 13.8163L34.131 11.6167C34.3677 11.1187 33.8482 10.5993 33.3503 10.836L31.1507 11.8815C30.8371 12.0306 30.4634 11.8758 30.347 11.5487L29.531 9.25406C29.3464 8.73457 28.6116 8.73457 28.4269 9.25406L27.6109 11.5487C27.4946 11.8759 27.1208 12.0306 26.8073 11.8815L24.6076 10.836C24.1097 10.5993 23.5902 11.1187 23.8269 11.6167L24.8725 13.8163C25.0215 14.1299 24.8667 14.5036 24.5396 14.6198L22.2449 15.4358C21.7254 15.6206 21.7254 16.3553 22.2449 16.54L24.5396 17.3559C24.8667 17.4723 25.0214 17.846 24.8725 18.1595L23.8269 20.3591C23.5902 20.857 24.1097 21.3765 24.6076 21.1398L26.8073 20.0943C27.1208 19.9452 27.4946 20.1 27.6109 20.4271L28.4269 22.7217C28.6116 23.2412 29.3464 23.2412 29.531 22.7217L30.347 20.4271C30.4634 20.0999 30.8371 19.9452 31.1507 20.0943L33.3503 21.1398C33.8482 21.3765 34.3677 20.857 34.131 20.3591L33.0855 18.1595C32.9364 17.8459 33.0912 17.4722 33.4184 17.3559L35.713 16.54C36.2325 16.3553 36.2325 15.6206 35.713 15.4358Z" fill="#FD8F96"/>
<path d="M17.5781 30.4688C17.5781 31.7632 16.5288 32.8125 15.2343 32.8125C13.9399 32.8125 12.8906 31.7632 12.8906 30.4688C12.8906 29.1743 13.9399 28.125 15.2343 28.125C16.5288 28.125 17.5781 29.1743 17.5781 30.4688ZM43.3593 33.9844C42.0649 33.9844 41.0156 35.0337 41.0156 36.3281C41.0156 37.6226 42.0649 38.6719 43.3593 38.6719C44.6538 38.6719 45.7031 37.6226 45.7031 36.3281C45.7031 35.0337 44.6538 33.9844 43.3593 33.9844ZM19.9218 46.875C18.6274 46.875 17.5781 47.9243 17.5781 49.2188C17.5781 50.5132 18.6274 51.5625 19.9218 51.5625C21.2163 51.5625 22.2656 50.5132 22.2656 49.2188C22.2656 47.9243 21.2163 46.875 19.9218 46.875ZM8.2031 45.7031C6.98294 45.7031 5.98146 46.6357 5.87048 47.8268C6.52919 48.717 7.23642 49.5689 7.98747 50.3797C8.05861 50.3862 8.13032 50.3906 8.2031 50.3906C9.49755 50.3906 10.5468 49.3413 10.5468 48.0469C10.5468 46.7524 9.49755 45.7031 8.2031 45.7031ZM1.17185 32.8125C0.806223 32.8125 0.461575 32.8986 0.153137 33.0479C0.306184 34.5642 0.571965 36.0472 0.942278 37.4884C1.01786 37.4958 1.09439 37.5 1.17185 37.5C2.4663 37.5 3.5156 36.4507 3.5156 35.1562C3.5156 33.8618 2.4663 32.8125 1.17185 32.8125Z" fill="#FF525D"/>
</g>
<defs>
<clipPath id="clip0">
<rect width="60" height="60" fill="white"/>
</clipPath>
</defs>
</svg>
