<svg width="60" height="60" viewBox="0 0 60 60" fill="none" xmlns="http://www.w3.org/2000/svg"><g clip-path="url(#clip0)"><path d="M60 30c0 11-5.92 20.617-14.748 25.838A29.847 29.847 0 0130 60a29.89 29.89 0 01-15.252-4.162C5.919 50.617 0 41 0 30 0 13.431 13.431 0 30 0c16.569 0 30 13.431 30 30z" fill="#343A6E"/><path d="M55.087 25.087c0 9.198-4.95 17.24-12.333 21.606A24.96 24.96 0 0130 50.173a24.993 24.993 0 01-12.755-3.48C9.864 42.327 4.913 34.285 4.913 25.087 4.913 11.232 16.145 0 30 0s25.087 11.232 25.087 25.087z" fill="#484B7F"/><path d="M32.449 46.564h-6.122V58.44h6.122V46.564z" fill="#F9DF73"/><path d="M29.387 46.564h-3.06V58.44h3.06V46.564z" fill="#F2AE5A"/><path d="M30 41.42c-7.38 0-13.517-5.675-14.094-13.031L14.02 4.338a1.721 1.721 0 011.716-1.856h28.527a1.72 1.72 0 011.716 1.856l-1.886 24.05C43.517 35.746 37.38 41.422 30 41.422z" fill="#F9DF73"/><path d="M29.388 50.176a5.571 5.571 0 100-11.143 5.571 5.571 0 000 11.143z" fill="#F9DF73"/><path d="M17.85 31.285c-5.627 0-10.023-1.832-13.065-5.445C1.995 22.524.43 17.848.131 11.938-.087 7.605.483 4.25.507 4.11l.176-1.016H9.9l2.327 4.143h3.831v2.449h-5.264L8.466 5.543H2.784C2.422 8.7 1.776 18.467 6.664 24.268c2.554 3.031 6.318 4.568 11.187 4.568v2.45z" fill="#F2AE5A"/><path d="M27.477 39.37c.224.13.454.242.687.335-.373.36-.7.851-.96 1.438a13.82 13.82 0 01-1.76-.474c-5.211-1.773-9.086-6.51-9.538-12.28L14.02 4.338a1.721 1.721 0 011.716-1.856h5.202l1.142 25.01c.256 5.595 2.45 10.183 5.397 11.878z" fill="#F2AE5A"/><path d="M29.559 50.173a5.572 5.572 0 01-2.082-10.804c.224.13.454.243.687.336-.374.36-.7.851-.96 1.438-.425.95-.678 2.154-.678 3.462 0 3.019 1.349 5.478 3.033 5.568zm0 0c.15-.004.296-.014.44-.03a1.786 1.786 0 01-.343.033c-.032 0-.066-.001-.097-.003zm15.693 5.665A29.847 29.847 0 0130 60a29.847 29.847 0 01-15.252-4.162 4.561 4.561 0 014.202-2.785h22.1a4.56 4.56 0 014.202 2.785z" fill="#F2AE5A"/><path d="M45.252 55.838A29.847 29.847 0 0130 60c-4.149 0-8.101-.842-11.694-2.366v-.018a4.562 4.562 0 014.563-4.563h18.18c1.89 0 3.51 1.148 4.203 2.785zm-3.104-24.553v-2.448c4.869 0 8.633-1.538 11.187-4.569 4.888-5.8 4.242-15.568 3.88-18.725h-5.682l-2.326 4.143h-5.265V7.237h3.831L50.1 3.094h9.216l.176 1.016c.098.564 2.316 13.895-4.278 21.73-3.042 3.613-7.438 5.445-13.066 5.445z" fill="#F9DF73"/><path d="M30 11.863l2.965 6.008 6.63.963-4.798 4.676 1.133 6.603L30 26.996l-5.93 3.117 1.132-6.603-4.797-4.676 6.63-.963L30 11.863z" fill="#F2AE5A"/></g><defs><clipPath id="clip0"><path fill="#fff" d="M0 0h60v60H0z"/></clipPath></defs></svg>