<svg width="60" height="60" viewBox="0 0 60 60" fill="none" xmlns="http://www.w3.org/2000/svg"><g clip-path="url(#clip0)"><path d="M30 60c16.569 0 30-13.431 30-30C60 13.431 46.569 0 30 0 13.431 0 0 13.431 0 30c0 16.569 13.431 30 30 30z" fill="#343A6E"/><path d="M46.621 15.904L30 24.72l-16.622-8.816V0h33.243v15.904z" fill="#FF525D"/><path d="M49.033 43.754c0 4.873-1.831 9.318-4.842 12.684A29.862 29.862 0 0130 60c-5.136 0-9.967-1.29-14.193-3.563a18.96 18.96 0 01-4.842-12.684c0-10.512 8.523-19.033 19.035-19.033s19.033 8.521 19.033 19.034z" fill="#FFD15C"/><path d="M30 58.373c8.074 0 14.62-6.546 14.62-14.62 0-8.074-6.546-14.619-14.62-14.619-8.074 0-14.62 6.545-14.62 14.62 0 8.073 6.546 14.619 14.62 14.619z" fill="#FFDC8D"/><path d="M30 32.438l3.325 6.738 7.437 1.08-5.381 5.246 1.27 7.406L30 49.412l-6.652 3.496 1.27-7.406-5.38-5.245 7.436-1.08L30 32.436z" fill="#F4A14E"/></g><defs><clipPath id="clip0"><path fill="#fff" d="M0 0h60v60H0z"/></clipPath></defs></svg>