<svg width="60" height="60" viewBox="0 0 60 60" fill="none" xmlns="http://www.w3.org/2000/svg"><g clip-path="url(#clip0)"><path d="M60 30a29.9 29.9 0 01-5.033 16.638 30.898 30.898 0 01-2.505 3.247 30.006 30.006 0 01-4.938 4.466 29.812 29.812 0 01-5.863 3.298A29.884 29.884 0 0130 60c-4.15 0-8.104-.843-11.698-2.366a29.908 29.908 0 01-7.248-4.374 29.974 29.974 0 01-3.54-3.402 29.946 29.946 0 01-5.065-7.966A29.908 29.908 0 010 30C0 13.431 13.431 0 30 0c16.569 0 30 13.431 30 30z" fill="#343A6E"/><path d="M54.636 24.636A24.557 24.557 0 0150.503 38.3a25.22 25.22 0 01-2.058 2.667 24.64 24.64 0 01-4.054 3.667 24.495 24.495 0 01-4.815 2.708A24.542 24.542 0 0130 49.272a24.56 24.56 0 01-9.606-1.942 24.57 24.57 0 01-5.953-3.592 24.623 24.623 0 01-2.906-2.795 24.594 24.594 0 01-4.16-6.54 24.558 24.558 0 01-2.011-9.767C5.364 11.03 16.394 0 30 0s24.636 11.03 24.636 24.636z" fill="#484B7F"/><path d="M14.521 28.505H8.974V32.7h5.547v-4.195z" fill="#823728"/><path d="M18.303 24.285a6.558 6.558 0 01-6.556 6.556 6.556 6.556 0 116.556-6.556z" fill="#823728"/><path d="M18.303 24.285c0 3.135-2.2 5.756-5.141 6.403a6.557 6.557 0 010-12.804 6.556 6.556 0 015.141 6.401z" fill="#965845"/><path d="M21.045 40.139v8.527a2.742 2.742 0 01-2.741 2.744h-.001v6.224A30.119 30.119 0 012.449 41.892V40.14a9.3 9.3 0 016.059-8.717 9.297 9.297 0 0112.537 8.717z" fill="#FF525D"/><path d="M4.068 45.094a29.952 29.952 0 01-1.619-3.202V40.14a9.3 9.3 0 016.059-8.717l.663 1.208c-2.608.802-5.215 4.623-5.103 12.464z" fill="#DB343F"/><path d="M21.045 46.638v2.028a2.742 2.742 0 01-2.741 2.744h-.001v6.224a30.119 30.119 0 01-13.27-10.996h16.012z" fill="#484B7F"/><path d="M16.994 46.638H6.754v1.636h10.24v-1.636z" fill="#DB343F"/><path d="M7.753 46.638v2.119c0 .393-.085.765-.238 1.1a29.959 29.959 0 01-2.482-3.218h2.72z" fill="#965845"/><path d="M15.74 46.638h5.306v2.12a2.652 2.652 0 01-5.305 0v-2.12z" fill="#823728"/><path d="M21.046 46.638v2.119c0 1.18-.77 2.179-1.834 2.524a2.65 2.65 0 01-1.836-2.524v-2.119h3.67z" fill="#965845"/><path d="M11.747 34.372l2.86-2.383-2.86-1.148-2.86 1.148 2.86 2.383z" fill="#F0F0F0"/><path d="M11.747 30.84l-3.002 3.78-2.063-3.555 5.065-.224zm0 0l3.003 3.78 2.062-3.555-5.065-.224z" fill="#FF525D"/><path d="M11.747 44.114l2.292-1.956-2.292-8.853-2.291 8.853 2.291 1.956z" fill="#F0F0F0"/><path d="M7.254 37.11a.5.5 0 01.5.5v9.028h-1V37.61a.5.5 0 01.5-.5zm8.986 0a.5.5 0 01.501.5v9.028h-1V37.61a.5.5 0 01.5-.5z" fill="#DB343F"/><path d="M12.44 51.332v2.994c-.472-.34-.935-.696-1.386-1.066v-1.928a.693.693 0 011.387 0z" fill="#343A6E"/><path d="M20.857 14.942a6.025 6.025 0 01-6.025 6.025H6.087a6.025 6.025 0 016.025-6.025h8.745z" fill="#5897D1"/><path d="M20.857 14.942a6.025 6.025 0 01-6.025 6.025H7.42a6.025 6.025 0 016.026-6.025h7.412z" fill="#9FC5E6"/><path d="M50.99 28.505h-5.547V32.7h5.547v-4.195z" fill="#E5A379"/><path d="M54.773 24.285a6.558 6.558 0 01-6.556 6.556 6.556 6.556 0 116.556-6.556z" fill="#E5A379"/><path d="M54.773 24.285c0 3.135-2.2 5.756-5.142 6.403a6.557 6.557 0 010-12.804 6.556 6.556 0 015.142 6.401z" fill="#F9D5A9"/><path d="M57.516 40.139v1.834A30.111 30.111 0 0141.66 57.65v-6.24a2.732 2.732 0 01-1.994-.86 2.73 2.73 0 01-.748-1.884v-8.527a9.298 9.298 0 1118.597 0z" fill="#9FC5E6"/><path d="M40.592 46.638c.112 2.002-.186 3.3-.716 4.11a2.734 2.734 0 01-.957-2.082V40.14a9.3 9.3 0 016.059-8.718l.663 1.209c-2.773.853-5.547 5.12-5.049 14.008z" fill="#5897D1"/><path d="M54.967 46.638A30.11 30.11 0 0141.661 57.65v-6.24a2.736 2.736 0 01-1.994-.86v-3.912h15.3z" fill="#484B7F"/><path d="M43.365 48.558v8.306c-.558.28-1.126.541-1.704.785V51.41a2.736 2.736 0 01-1.994-.86v-1.992h3.698z" fill="#343A6E"/><path d="M53.464 46.638h-10.24v1.636h10.24v-1.636z" fill="#5897D1"/><path d="M44.223 46.638v2.119a2.652 2.652 0 11-5.304 0v-2.119h5.304z" fill="#E5A379"/><path d="M44.223 46.638v2.119c0 1.18-.769 2.179-1.833 2.524a2.65 2.65 0 01-1.836-2.524v-2.119h3.67z" fill="#F9D5A9"/><path d="M54.967 46.638a30.861 30.861 0 01-2.505 3.247 2.622 2.622 0 01-.252-1.128v-2.119h2.757z" fill="#E5A379"/><path d="M54.967 46.638a29.17 29.17 0 01-1.121 1.567v-1.567h1.121z" fill="#F9D5A9"/><path d="M48.217 34.372l2.86-2.383-2.86-1.148-2.86 1.148 2.86 2.383z" fill="#484B7F"/><path d="M48.217 30.84l-3.003 3.78-2.062-3.555 5.065-.224zm0 0l3.002 3.78 2.063-3.555-5.065-.224z" fill="#5897D1"/><path d="M48.217 44.114l2.291-1.956-2.291-8.853-2.292 8.853 2.292 1.956z" fill="#484B7F"/><path d="M43.723 37.11a.5.5 0 01.5.5v9.028h-1V37.61a.5.5 0 01.5-.5zm8.987 0a.5.5 0 01.5.5v9.028h-1V37.61a.5.5 0 01.5-.5z" fill="#5897D1"/><path d="M48.91 51.332v1.958c-.452.367-.914.722-1.386 1.061v-3.02a.692.692 0 111.386 0z" fill="#343A6E"/><path d="M57.327 14.942a6.025 6.025 0 01-6.025 6.025h-8.746a6.025 6.025 0 016.026-6.025h8.745z" fill="#DB343F"/><path d="M57.327 14.942a6.025 6.025 0 01-6.025 6.025h-7.413a6.025 6.025 0 016.025-6.025h7.413z" fill="#FF525D"/><path d="M33.315 35.24h-6.632v5.016h6.632V35.24z" fill="#E5A654"/><path d="M37.838 30.194a7.84 7.84 0 01-7.839 7.839A7.838 7.838 0 1131.69 22.54a7.84 7.84 0 016.148 7.653z" fill="#E5A654"/><path d="M37.838 30.194a7.84 7.84 0 01-6.148 7.655 7.84 7.84 0 010-15.309 7.84 7.84 0 016.148 7.654z" fill="#F9C682"/><path d="M41.117 49.15v8.723a29.841 29.841 0 01-3.688 1.2A30.078 30.078 0 0130 60a30.05 30.05 0 01-6.775-.769 29.621 29.621 0 01-4.343-1.36V49.15c0-4.778 3.013-8.85 7.244-10.423A11.078 11.078 0 0130 38.033c6.14 0 11.117 4.976 11.117 11.117z" fill="#F0F0F0"/><path d="M20.882 56.922c.034.61.037 1.165.01 1.67l-.055-.017a29.701 29.701 0 01-1.956-.703V49.15c0-4.778 3.014-8.85 7.244-10.423l.794 1.445c-3.316 1.02-6.632 6.121-6.037 16.75z" fill="#D4D4D4"/><path d="M37.429 57.951v1.122A30.069 30.069 0 0130 60a30.05 30.05 0 01-6.775-.769v-1.28h14.204z" fill="#FF525D"/><path d="M36.272 56.922H24.028v1.955h12.244v-1.955z" fill="#D4D4D4"/><path d="M25.224 56.922v2.532c0 .056-.001.113-.005.168a29.753 29.753 0 01-6.338-1.75v-.95h6.343z" fill="#E5A654"/><path d="M25.224 56.922v2.532c0 .056-.001.113-.005.168a29.75 29.75 0 01-4.382-1.047v-1.653h4.387z" fill="#F9C682"/><path d="M41.117 56.922v.951a29.813 29.813 0 01-6.34 1.748 3.64 3.64 0 01-.003-.166v-2.533h6.343z" fill="#E5A654"/><path d="M41.117 56.922v.951a29.813 29.813 0 01-4.388 1.37v-2.321h4.388z" fill="#F9C682"/><path d="M30 42.254l3.42-2.848L30 38.033l-3.42 1.373L30 42.254z" fill="#FF525D"/><path d="M30 38.033l-3.591 4.519-2.466-4.251L30 38.033zm0 0l3.59 4.519 2.465-4.251L30 38.033z" fill="#D4D4D4"/><path d="M30 53.903l2.74-2.338L30 40.979l-2.74 10.586L30 53.903z" fill="#FF525D"/><path d="M24.626 45.528c.33 0 .598.268.598.598v10.796h-1.196V46.126c0-.33.268-.598.598-.598zm10.746 0c.33 0 .598.268.598.598v10.796h-1.196V46.126c0-.33.268-.598.598-.598zm5.52-26.505a7.204 7.204 0 01-7.204 7.203H23.231a7.204 7.204 0 017.205-7.203h10.456z" fill="#D4D4D4"/><path d="M40.892 19.023a7.204 7.204 0 01-7.204 7.203h-8.864a7.204 7.204 0 017.205-7.203h8.863z" fill="#F0F0F0"/><path d="M31.193.741l1.22 2.474a1.33 1.33 0 001.002.728l2.73.396c1.09.159 1.526 1.5.737 2.269l-1.975 1.925a1.33 1.33 0 00-.383 1.178l.466 2.718c.187 1.087-.954 1.915-1.93 1.402l-2.441-1.283a1.33 1.33 0 00-1.238 0L26.94 13.83c-.976.513-2.117-.315-1.93-1.402l.466-2.718a1.33 1.33 0 00-.382-1.178l-1.976-1.925c-.789-.77-.353-2.11.738-2.269l2.73-.396a1.33 1.33 0 001-.728L28.809.741c.487-.988 1.897-.988 2.385 0zM15.024 1.81l.965 1.955c.153.31.449.525.791.575l2.157.314a1.051 1.051 0 01.583 1.792l-1.56 1.522c-.249.242-.362.59-.303.93l.368 2.149a1.051 1.051 0 01-1.525 1.108l-1.93-1.014a1.05 1.05 0 00-.978 0l-1.93 1.014a1.051 1.051 0 01-1.524-1.108l.368-2.149a1.051 1.051 0 00-.302-.93l-1.56-1.522a1.051 1.051 0 01.582-1.792l2.157-.314a1.05 1.05 0 00.791-.575l.965-1.955a1.051 1.051 0 011.885 0zm31.836 0l.966 1.955c.153.31.449.525.791.575l2.157.314a1.051 1.051 0 01.583 1.792l-1.561 1.522c-.248.242-.36.59-.303.93l.369 2.149a1.051 1.051 0 01-1.525 1.108l-1.93-1.014a1.051 1.051 0 00-.978 0l-1.93 1.014a1.051 1.051 0 01-1.525-1.108l.369-2.149a1.051 1.051 0 00-.302-.93L40.48 6.446a1.051 1.051 0 01.582-1.792l2.157-.314a1.05 1.05 0 00.792-.575l.964-1.955a1.051 1.051 0 011.886 0z" fill="#FFD15C"/></g><defs><clipPath id="clip0"><path fill="#fff" d="M0 0h60v60H0z"/></clipPath></defs></svg>