<svg width="60" height="60" viewBox="0 0 60 60" fill="none" xmlns="http://www.w3.org/2000/svg"><path d="M30 60c16.569 0 30-13.431 30-30C60 13.431 46.569 0 30 0 13.431 0 0 13.431 0 30c0 16.569 13.431 30 30 30z" fill="#343A6E"/><path d="M28.657 12.772s-7.695-3.405-14.842 3.929c-.936.96-.373 2.553.951 2.762 1.951.307 4.308 1.608 5.932 5.584" fill="#EF4152"/><path d="M47.793 31.91s3.406 7.694-3.928 14.84c-.96.936-2.554.374-2.762-.95-.307-1.952-1.608-4.308-5.585-5.932" fill="#FF525D"/><path d="M38.55 29.982l-5.95 8.074a1.174 1.174 0 01-1.776.133l-8.449-8.449a1.174 1.174 0 01.135-1.775l8.073-5.95 3.187 3.187 4.78 4.78z" fill="#EF4152"/><path d="M38.55 29.983l-5.95 8.073a1.174 1.174 0 01-1.776.133l-5.262-5.261a1.174 1.174 0 01.134-1.777l8.074-5.948 4.78 4.78z" fill="#FF525D"/><path d="M30.673 29.892a16.89 16.89 0 014.845 9.976 34.875 34.875 0 0012.275-7.959c7.948-7.948 11.274-18.766 9.982-29.118-10.352-1.293-21.17 2.033-29.118 9.981a34.87 34.87 0 00-7.96 12.275 16.89 16.89 0 019.976 4.845z" fill="#F9EED7"/><path d="M33.293 17.408c-2.915 2.915-5.45 5.971-7.57 9.044a16.941 16.941 0 00-5.025-1.405 34.892 34.892 0 017.959-12.275C36.604 4.824 47.423 1.499 57.775 2.79 50.244 4.32 41.24 9.46 33.293 17.408z" fill="#E8DBC4"/><path d="M43.136 24.94a7.511 7.511 0 100-15.022 7.511 7.511 0 000 15.022z" fill="#FF525D"/><path d="M43.136 22.084a4.654 4.654 0 100-9.309 4.654 4.654 0 000 9.309z" fill="#5C5E70"/><path d="M58.43 32.81h-1.61a1.421 1.421 0 01-1.422-1.421v-1.61c0-.353-.257-.667-.607-.7a.673.673 0 00-.74.67v1.64a1.42 1.42 0 01-1.421 1.421h-1.611c-.352 0-.666.258-.7.608a.674.674 0 00.671.74h1.64a1.42 1.42 0 011.421 1.42v1.612c0 .351.257.666.608.699a.674.674 0 00.74-.67v-1.64c0-.785.636-1.422 1.42-1.422h1.64a.674.674 0 00.67-.74c-.033-.35-.347-.607-.699-.607zM22.616 4.832h-1.611a1.421 1.421 0 01-1.422-1.421V1.8c0-.352-.257-.666-.607-.7a.674.674 0 00-.74.671v1.64a1.42 1.42 0 01-1.421 1.421h-1.61c-.353 0-.667.257-.7.608a.674.674 0 00.67.74h1.64c.785 0 1.422.636 1.422 1.42v1.611c0 .352.257.666.607.7a.674.674 0 00.74-.67V7.6c0-.785.636-1.422 1.421-1.422h1.64a.674.674 0 00.67-.74c-.033-.35-.348-.607-.7-.607zM15.453 27.24h-1.61a1.421 1.421 0 01-1.422-1.422v-1.61c0-.353-.257-.667-.608-.7a.674.674 0 00-.74.67v1.64a1.42 1.42 0 01-1.42 1.421H8.04c-.352 0-.666.258-.699.608a.674.674 0 00.67.74h1.64c.785 0 1.422.636 1.422 1.42v1.612c0 .351.257.666.607.699a.673.673 0 00.74-.67v-1.64c0-.785.636-1.422 1.421-1.422h1.64a.674.674 0 00.67-.74c-.033-.35-.347-.607-.7-.607z" fill="#FFD15C"/><path d="M28.859 59.978c-11.323-.424-21.04-7.12-25.776-16.718A29.823 29.823 0 01.034 31.429a6.146 6.146 0 013.042 2.939 9.362 9.362 0 0111.308 6.23l6.164-6.165a1.741 1.741 0 012.464 0l3.12 3.12c.68.682.68 1.784 0 2.465l-6.164 6.163a9.361 9.361 0 016.23 11.308 6.198 6.198 0 012.661 2.488z" fill="#F9EED7"/><path d="M23.012 34.433l-9.744 9.743s-1.08-2.55-6.405-2.55c-1.672 0-2.893.689-3.78 1.634A29.825 29.825 0 01.034 31.429a6.146 6.146 0 013.042 2.939 9.362 9.362 0 0111.308 6.23l6.164-6.165a1.741 1.741 0 012.464 0z" fill="#E8DBC4"/></svg>