<svg width="60" height="60" viewBox="0 0 60 60" fill="none" xmlns="http://www.w3.org/2000/svg"><path d="M60 30c0 16.569-13.431 30-30 30a29.853 29.853 0 01-16.64-5.035A30.106 30.106 0 013.962 44.91 29.773 29.773 0 01.246 33.866 30.277 30.277 0 010 30C0 13.431 13.431 0 30 0c16.569 0 30 13.431 30 30z" fill="#343A6E"/><path d="M30 49.135c13.568 0 24.567-10.999 24.567-24.567S43.568.001 30 .001s-24.567 11-24.567 24.567c0 13.568 10.999 24.567 24.567 24.567z" fill="#484B7F"/><path d="M37.837 36.178c0 7.874-8.47 14.259-18.919 14.259-6.083 0-11.495-2.164-14.956-5.526A29.773 29.773 0 01.247 33.866c1.466-6.775 9.267-11.948 18.671-11.948 10.449 0 18.919 6.385 18.919 14.26z" fill="#FF525D"/><path d="M39.39 31.068c11.382 0 20.609-6.955 20.609-15.534C59.999 6.954 50.772 0 39.389 0 28.007 0 18.78 6.955 18.78 15.534s9.227 15.534 20.61 15.534z" fill="#F9DF73"/><path d="M18.667 47.548c-.524 3.034-2.919 5.576-5.308 7.417a30.048 30.048 0 01-3.221-2.482c-.026-2.994-1.248-5.602-1.248-5.602l9.777.667z" fill="#FF525D"/><path d="M19.83 35.106H7.142a1.26 1.26 0 110-2.518H19.83a1.26 1.26 0 010 2.518zm10.495 5.108H7.143a1.26 1.26 0 110-2.52h23.182a1.26 1.26 0 010 2.52z" fill="#484B7F"/><path d="M50.316 27.195s-2.221 4.737-.99 9.002c.299 1.034-.824 1.89-1.731 1.31-3.121-1.995-7.201-5.35-7.932-9.586" fill="#F9DF73"/><path d="M26.963 14.367h13.82a1.372 1.372 0 100-2.744h-13.82a1.372 1.372 0 100 2.744zm0 5.564h25.255a1.372 1.372 0 100-2.744H26.963a1.372 1.372 0 100 2.744z" fill="#484B7F"/></svg>