<svg width="60" height="60" viewBox="0 0 60 60" fill="none" xmlns="http://www.w3.org/2000/svg"><g clip-path="url(#clip0)"><path d="M60 30c0 13.898-9.452 25.587-22.277 28.995a27.283 27.283 0 001.38-20.431C34.407 24.19 18.947 16.345 4.573 21.043A27.578 27.578 0 00.94 22.522C4.262 9.572 16.013 0 30 0c16.569 0 30 13.431 30 30z" fill="#343A6E"/><path d="M56.25 30.846h-14.9l-2.967 2.967a.586.586 0 01-.829 0l-2.966-2.967h-14.9a1.172 1.172 0 01-1.172-1.172V8.58c0-.647.524-1.172 1.172-1.172h30.05a30.085 30.085 0 017.684 10.41v11.856c0 .647-.525 1.172-1.172 1.172z" fill="#506EA0"/><path d="M47.445 29.427c3.644 11.151-.551 22.98-9.556 29.523A30.03 30.03 0 0130 60C13.431 60 0 46.569 0 30c0-2.725.366-5.365 1.047-7.875a26.244 26.244 0 0113.145-9.57c13.842-4.524 28.73 3.03 33.253 16.872z" fill="#5D619D"/><path d="M47.445 29.427C42.922 15.585 28.034 8.031 14.192 12.555a26.245 26.245 0 00-13.145 9.57A31.624 31.624 0 00.73 23.4l-.038.17a28.254 28.254 0 00-.308 1.628l-.037.231a25.162 25.162 0 018.934-9.334c-.725 1.68-1.208 3.752-1.42 6.17a34.86 34.86 0 00-.107 4.012A91.462 91.462 0 01.1 27.554c-.032.39-.056.78-.072 1.174v.012c-.009.195-.015.39-.02.586v.004c-.004.198-.007.397-.007.596a93.583 93.583 0 007.888-1.283c.33 3.951 1.207 8.228 2.585 12.52-2.62.492-5.24.866-7.851 1.12.062.14.127.277.191.416l.088.186c.07.148.142.294.215.44l.066.134c.081.16.163.32.247.48l.036.067c.092.174.185.346.28.518a92.379 92.379 0 007.493-1.122c1.446 3.99 3.233 7.67 5.235 10.8a92.106 92.106 0 01-3.324.621c.479.326.969.638 1.467.936l.087.052c.221.13.443.259.667.384l.09.05c.247.138.495.272.746.402a96.087 96.087 0 001.699-.351c.438.599.885 1.172 1.338 1.716l.004.002a29.86 29.86 0 002.187.743l.114.034c.158.046.316.091.475.135l.153.041c.157.043.314.084.473.124l.098.024c.362.09.727.174 1.094.251a21.772 21.772 0 01-2.348-2.327c-.367-.42-.73-.86-1.087-1.32a99.335 99.335 0 007.217-2.061 99.316 99.316 0 007.043-2.599c-.018.582-.05 1.152-.1 1.707-.274 3.142-1.044 5.597-2.196 7.14l.052-.004c.13-.01.26-.022.39-.034l.165-.015.357-.038.192-.021.162-.02c.259-.032.517-.067.774-.105l.062-.01c.147-.022.294-.046.441-.07l.055-.01c.152-.025.305-.052.457-.08l.027-.005c.806-.15 1.601-.332 2.383-.544 9.006-6.543 13.201-18.372 9.557-29.523zM35.163 15.92a91.28 91.28 0 01-7.674 3.907 34.843 34.843 0 00-2.455-3.174c-1.6-1.827-3.213-3.215-4.79-4.142a25.23 25.23 0 0114.92 3.409zm-24.966 6.549c.423-4.826 2.012-8.033 4.359-8.8 2.347-.768 5.524.883 8.715 4.527.693.792 1.37 1.658 2.028 2.587a96.784 96.784 0 01-15.212 4.971 32.038 32.038 0 01.11-3.285zm0 5.665a98.974 98.974 0 0016.419-5.365c2.08 3.35 3.911 7.34 5.329 11.667a96.485 96.485 0 01-9.417 3.627 96.49 96.49 0 01-9.742 2.634c-1.41-4.329-2.29-8.631-2.589-12.563zm16.7 23.296a96.735 96.735 0 01-7.976 2.233c-2.043-3.047-3.878-6.715-5.36-10.736a98.967 98.967 0 009.695-2.636 98.94 98.94 0 009.381-3.598c1.178 4.12 1.864 8.164 2.014 11.83a96.792 96.792 0 01-7.755 2.907zm7.189-17.984c-1.422-4.277-3.24-8.246-5.307-11.63a93.188 93.188 0 008.571-4.454 25.052 25.052 0 017.916 9.714 88.254 88.254 0 01-11.18 6.37zm1.397 25.695c.725-1.679 1.208-3.752 1.42-6.17.082-.94.122-1.917.122-2.923a93.302 93.302 0 009.357-4.796c-1.82 5.695-5.636 10.686-10.899 13.89zm1.46-11.628c-.232-3.709-.962-7.734-2.151-11.808a90.824 90.824 0 0011.37-6.41 25.039 25.039 0 011.022 12.73 89.992 89.992 0 01-10.24 5.488z" fill="#767AC2"/><path d="M41.848 55.405a4.68 4.68 0 01-1.758-5.34c-4.852-1.202-8.45-5.584-8.45-10.807 0-6.149 4.985-11.133 11.133-11.133 1.625 0 3.169.348 4.56.974.038.11.076.218.112.328 3.058 9.357.595 19.19-5.597 25.978zm-26.614-8.53c-.687 0-1.355.086-1.993.245a11.133 11.133 0 006.68-10.206c0-6.148-4.983-11.133-11.132-11.133-3.572 0-6.75 1.683-8.788 4.299.036 13.915 9.546 25.602 22.42 28.953a8.203 8.203 0 00-7.187-12.158zm24.61-28.125c0-.318-.02-.632-.056-.94a26.492 26.492 0 00-12.39-6.081 8.198 8.198 0 00-3.271 10.313 4.688 4.688 0 107.367 4.907c.049.001.097.004.147.004a8.203 8.203 0 008.203-8.203z" fill="#484B7F"/><path d="M47.445 29.427c-.036-.11-.074-.219-.111-.328a11.07 11.07 0 00-3.723-.942 88.8 88.8 0 01-9.525 5.29c-.09-.268-.18-.534-.271-.799a11.079 11.079 0 00-1.951 4.382c.258-.112.516-.223.773-.337.99 3.465 1.632 6.874 1.9 10.052a11.16 11.16 0 003.78 2.717 92.855 92.855 0 008.065-4.21 25.39 25.39 0 01-5.408 9.36c.257.299.55.566.874.793 6.192-6.788 8.655-16.62 5.597-25.978zM36.944 47.513c-.233-3.709-.963-7.734-2.152-11.808a90.831 90.831 0 0011.37-6.41 25.041 25.041 0 011.022 12.73 89.984 89.984 0 01-10.24 5.488zm-8.165-25.697a51.638 51.638 0 012.734 5.134h-.02a4.688 4.688 0 01-1.48 2.381c-1.022-2.37-2.166-4.579-3.398-6.562a99.05 99.05 0 01-4.15 1.66 4.697 4.697 0 011.662-2.387 8.187 8.187 0 01-.258-.671c.479-.193.956-.388 1.43-.588a32.422 32.422 0 00-1.853-2.383 8.162 8.162 0 01.618-2.799c.323.333.647.683.97 1.052a34.879 34.879 0 012.455 3.175 91.278 91.278 0 007.674-3.908 25.354 25.354 0 00-9.063-3.218 8.242 8.242 0 011.297-.973c4.593.894 8.878 3 12.391 6.08a8.142 8.142 0 01.026 1.624 25.206 25.206 0 00-2.464-2.071 93.261 93.261 0 01-8.571 4.454zm-5.345 33.11a98.883 98.883 0 01-3.027.794c.358.459.72.9 1.087 1.319.42.479.838.922 1.255 1.33-.1.227-.208.448-.327.663l-.22-.058a24.216 24.216 0 01-.778-.22 29.686 29.686 0 01-1.005-.32l-.117-.039a29.776 29.776 0 01-.46-.161l-.094-.034a30.296 30.296 0 01-.473-.176l-.031-.013c-.454-.544-.9-1.117-1.338-1.716a96.75 96.75 0 01-1.699.351l-.014-.007a30.443 30.443 0 01-.737-.396l-.1-.056a33.72 33.72 0 01-.636-.367l-.106-.063c-.231-.138-.46-.28-.687-.423l-.117-.076c-.19-.123-.38-.248-.569-.375l-.09-.06a92.494 92.494 0 003.323-.62c-2.002-3.132-3.79-6.81-5.236-10.801-2.5.479-4.999.853-7.492 1.121a30.15 30.15 0 01-.855-1.66l-.005-.01c-.07-.148-.138-.297-.206-.445-.019-.042-.039-.083-.057-.125a89.589 89.589 0 007.851-1.121C9.096 36.87 8.22 32.594 7.89 28.642a93.18 93.18 0 01-7.751 1.266 11.182 11.182 0 013.495-2.862 91.723 91.723 0 004.122-.77l-.01-.446a11.083 11.083 0 016.371 1.307 98.17 98.17 0 01-3.918.997c.299 3.932 1.178 8.234 2.589 12.563a95.665 95.665 0 006.952-1.77c-.172.94-.462 1.84-.854 2.682a97.764 97.764 0 01-5.324 1.318c.416 1.13.861 2.23 1.33 3.298a11.11 11.11 0 01-1.65.895 8.212 8.212 0 011.94-.244c1.129 2.482 2.388 4.771 3.74 6.788 1.38-.324 2.758-.68 4.134-1.067.233.737.364 1.518.379 2.329z" fill="#7074B6"/><path d="M57.422 5.065v21.093c0 .648-.525 1.172-1.172 1.172h-14.9l-2.967 2.967a.586.586 0 01-.829 0l-2.966-2.967h-14.9a1.172 1.172 0 01-1.172-1.172V5.065c0-.648.524-1.172 1.172-1.172H56.25c.647 0 1.172.524 1.172 1.172z" fill="#FF525D"/><path d="M54.082 15.494v1.172a.586.586 0 01-.586.586H38.848a.586.586 0 01-.586-.586v-1.172c0-.323.262-.586.586-.586h14.648c.324 0 .586.263.586.586zm-.586-5.273H38.848a.586.586 0 00-.586.586v1.172c0 .323.262.586.586.586h14.648a.586.586 0 00.586-.586v-1.172a.586.586 0 00-.586-.586zm-5.039 9.375h-9.61a.586.586 0 00-.585.586v1.172c0 .323.262.586.586.586h9.61a.586.586 0 00.585-.586v-1.172a.586.586 0 00-.586-.586zm-12.744-4.16l-2.295-.816a.586.586 0 01-.332-.804l1.045-2.2a.586.586 0 00-.78-.78l-2.2 1.046a.586.586 0 01-.804-.333l-.816-2.295a.586.586 0 00-1.104 0l-.816 2.295a.586.586 0 01-.804.333l-2.2-1.046a.586.586 0 00-.78.78l1.045 2.2a.586.586 0 01-.332.804l-2.295.816a.586.586 0 000 1.104l2.295.816c.327.116.481.49.332.803l-1.045 2.2a.586.586 0 00.78.78l2.2-1.045a.586.586 0 01.804.333l.816 2.295c.185.52.92.52 1.104 0l.816-2.295a.586.586 0 01.804-.333l2.2 1.046a.586.586 0 00.78-.78l-1.045-2.2a.586.586 0 01.332-.804l2.295-.816a.586.586 0 000-1.104z" fill="#FD8F96"/><path d="M17.578 30.469a2.344 2.344 0 11-4.687 0 2.344 2.344 0 014.687 0zm25.781 3.515a2.344 2.344 0 100 4.688 2.344 2.344 0 000-4.688zM19.922 46.875a2.344 2.344 0 100 4.687 2.344 2.344 0 000-4.687zM8.203 45.703c-1.22 0-2.222.933-2.333 2.124.66.89 1.366 1.742 2.117 2.553a2.344 2.344 0 10.216-4.677zm-7.031-12.89c-.366 0-.71.086-1.019.235.153 1.516.419 3 .79 4.44a2.344 2.344 0 10.23-4.676z" fill="#FF525D"/></g><defs><clipPath id="clip0"><path fill="#fff" d="M0 0h60v60H0z"/></clipPath></defs></svg>